<?xml version="1.0" encoding="UTF-8"?>
<svg width="24px" height="24px" viewBox="0 0 24 24" version="1.1" xmlns="http://www.w3.org/2000/svg" xmlns:xlink="http://www.w3.org/1999/xlink">
    <title>Duplicate</title>
    <g id="Duplicate" stroke="none" stroke-width="1" fill="none" fill-rule="evenodd">
        <path d="M17.8829712,4.70597693 C18.6626635,4.70597693 19.2947289,5.33804242 19.2947289,6.11773472 L19.2947289,22.5882422 C19.2947289,23.3679345 18.6626635,24 17.8829712,24 L1.41175779,24 C0.63206549,24 0,23.3679345 0,22.5882422 L0,6.11773472 C0,5.33804242 0.63206549,4.70597693 1.41175779,4.70597693 L17.8829712,4.70597693 Z M16.4712134,7.5294925 L2.82351557,7.5294925 L2.82351557,21.1764844 L16.4712134,21.1764844 L16.4712134,7.5294925 Z M22.5889481,0 C23.3686404,0 24.0007059,0.63206549 24.0007059,1.41175779 L24.0007059,17.8823829 C24.0007059,18.6620752 23.3686404,19.2941407 22.5889481,19.2941407 C21.8092558,19.2941407 21.1771903,18.6620752 21.1771903,17.8823829 L21.1771903,2.82351557 L6.11761707,2.82351557 C5.34992004,2.82351557 4.7253424,2.21074865 4.70630632,1.447637 L4.70585929,1.41175779 C4.70585929,0.63206549 5.33792478,0 6.11761707,0 L22.5889481,0 Z" id="Combined-Shape" fill="#D2D2D2" fill-rule="nonzero"></path>
    </g>
</svg>